<svg width="71" height="75" viewBox="0 0 71 75" fill="none" xmlns="http://www.w3.org/2000/svg">
<path d="M3 31.3127L35.4165 2.94824L67.833 31.3127V71.8333H47.5727V55.625C47.5727 52.4012 46.2918 49.3091 44.0121 47.0294C41.7324 44.7497 38.6407 43.4689 35.4165 43.4689C32.1927 43.4689 29.1005 44.7497 26.8208 47.0294C24.541 49.3091 23.2603 52.4008 23.2603 55.625V71.8333H3V31.3127Z" fill="#2CA9BC"/>
<path d="M3 31.3127L35.4165 2.94824L67.833 31.3127V71.8333H47.5727V55.625C47.5727 52.4012 46.2918 49.3091 44.0122 47.0294C41.7325 44.7497 38.6403 43.4689 35.4165 43.4689C32.1923 43.4689 29.1006 44.7497 26.8208 47.0294C24.5411 49.3091 23.2603 52.4008 23.2603 55.625V71.8333H3.00004L3 31.3127Z" stroke="black" stroke-width="5" stroke-linecap="round" stroke-linejoin="round"/>
</svg>
