<svg width="98" height="98" viewBox="0 0 98 98" fill="none" xmlns="http://www.w3.org/2000/svg">
<circle cx="49" cy="49" r="49" fill="#015FC9"/>
<path fill-rule="evenodd" clip-rule="evenodd" d="M40.4458 30.2393C37.2714 30.3825 34.5201 31.1586 32.2984 33.3709C30.069 35.5948 29.3025 38.3571 29.1589 41.4984C29.0697 43.4591 28.5478 58.2716 30.0612 62.1562C31.0818 64.7768 33.0919 66.7918 35.7366 67.8157C36.9706 68.2957 38.3793 68.6207 40.4458 68.7155C57.7243 69.4974 64.1293 69.0717 66.8302 62.1562C67.3095 60.9252 67.6393 59.5177 67.7305 57.4564C68.5202 40.1335 67.6025 36.3787 64.5911 33.3709C62.2026 30.9883 59.393 29.3664 40.4458 30.2393ZM40.6049 65.2316C38.713 65.1464 37.6866 64.8312 37.0017 64.5661C35.2787 63.8964 33.9845 62.6075 33.319 60.8946C32.1664 57.9429 32.5487 43.924 32.6515 41.6555C32.7524 39.4336 33.2026 37.4028 34.7703 35.8351C36.7107 33.8996 39.2175 32.951 56.2865 33.7213C58.514 33.822 60.5494 34.2712 62.1211 35.8351C64.0614 37.7706 65.0238 40.2967 64.2399 57.3002C64.1545 59.1874 63.8383 60.2113 63.5724 60.8946C61.8165 65.3946 57.7767 66.0193 40.6049 65.2316ZM56.4747 39.1447C56.4747 40.4261 57.5167 41.468 58.8031 41.468C60.0896 41.468 61.1335 40.4261 61.1335 39.1447C61.1335 37.8634 60.0896 36.8225 58.8031 36.8225C57.5167 36.8225 56.4747 37.8634 56.4747 39.1447ZM38.4822 49.4765C38.4822 54.9656 42.943 59.4159 48.4457 59.4159C53.9485 59.4159 58.4093 54.9656 58.4093 49.4765C58.4093 43.9873 53.9485 39.5399 48.4457 39.5399C42.943 39.5399 38.4822 43.9873 38.4822 49.4765ZM41.9786 49.4765C41.9786 45.9151 44.8736 43.0257 48.4457 43.0257C52.0178 43.0257 54.9128 45.9151 54.9128 49.4765C54.9128 53.0397 52.0178 55.9301 48.4457 55.9301C44.8736 55.9301 41.9786 53.0397 41.9786 49.4765Z" fill="white"/>
</svg>
