<svg width="98" height="98" viewBox="0 0 98 98" fill="none" xmlns="http://www.w3.org/2000/svg">
<circle cx="49" cy="49" r="49" fill="white"/>
<path fill-rule="evenodd" clip-rule="evenodd" d="M46.9398 53.9875C47.1322 53.7951 47.2849 53.5666 47.389 53.3152C47.4932 53.0639 47.5468 52.7944 47.5468 52.5223C47.5468 52.2502 47.4932 51.9807 47.389 51.7294C47.2849 51.478 47.1322 51.2495 46.9398 51.0571C46.3992 50.5166 45.9704 49.8749 45.6778 49.1686C45.3852 48.4623 45.2347 47.7053 45.2347 46.9409C45.2347 46.1764 45.3852 45.4194 45.6778 44.7132C45.9704 44.0069 46.3992 43.3652 46.9398 42.8246L53.9177 35.8491C54.4582 35.3085 55.1 34.8798 55.8063 34.5872C56.5126 34.2947 57.2696 34.1441 58.0341 34.1441C58.7986 34.1441 59.5556 34.2947 60.2619 34.5872C60.9682 34.8798 61.61 35.3085 62.1506 35.8491C62.6912 36.3897 63.12 37.0314 63.4126 37.7377C63.7051 38.4439 63.8557 39.2009 63.8557 39.9654C63.8557 40.7298 63.7051 41.4868 63.4126 42.1931C63.12 42.8993 62.6912 43.5411 62.1506 44.0816L59.9937 46.2364C59.8013 46.4288 59.6486 46.6573 59.5445 46.9086C59.4404 47.16 59.3868 47.4295 59.3868 47.7016C59.3868 47.9737 59.4404 48.2431 59.5445 48.4945C59.6486 48.7459 59.8013 48.9743 59.9937 49.1667C60.3823 49.5553 60.9094 49.7736 61.4589 49.7736C61.731 49.7736 62.0005 49.72 62.2519 49.6159C62.5033 49.5118 62.7317 49.3591 62.9242 49.1667L65.0811 47.0119C66.95 45.1431 68 42.6083 68 39.9654C68 37.3224 66.95 34.7877 65.0811 32.9188C63.2121 31.0499 60.6772 30 58.0341 30C55.391 30 52.8562 31.0499 50.9872 32.9188L44.0093 39.8943C43.0839 40.8197 42.3498 41.9182 41.8489 43.1273C41.348 44.3363 41.0903 45.6322 41.0903 46.9409C41.0903 48.2496 41.348 49.5454 41.8489 50.7545C42.3498 51.9635 43.0839 53.0621 44.0093 53.9875C44.8184 54.7965 46.1307 54.7965 46.9398 53.9875ZM50.9852 44.0816C50.7928 44.274 50.6401 44.5024 50.536 44.7538C50.4319 45.0052 50.3783 45.2747 50.3783 45.5468C50.3783 45.8189 50.4319 46.0883 50.536 46.3397C50.6401 46.5911 50.7928 46.8195 50.9852 47.0119C51.5258 47.5525 51.9546 48.1942 52.2472 48.9005C52.5398 49.6067 52.6904 50.3637 52.6904 51.1282C52.6904 51.8926 52.5398 52.6496 52.2472 53.3559C51.9546 54.0622 51.5258 54.7039 50.9852 55.2444L44.0784 62.1509C43.5407 62.7041 42.8983 63.145 42.1887 63.4478C41.4791 63.7506 40.7164 63.9093 39.9449 63.9148C39.1734 63.9202 38.4085 63.7722 37.6947 63.4795C36.9809 63.1867 36.3324 62.755 35.7869 62.2094C35.2414 61.6638 34.8098 61.0153 34.5172 60.3014C34.2246 59.5876 34.0769 58.8227 34.0825 58.0512C34.0881 57.2798 34.2471 56.5171 34.55 55.8076C34.853 55.0982 35.294 54.456 35.8474 53.9184L37.8701 51.8958C38.2587 51.5072 38.4771 50.9802 38.4771 50.4306C38.4771 49.8811 38.2587 49.3541 37.8701 48.9655C37.4815 48.5769 36.9545 48.3586 36.4049 48.3586C35.8553 48.3586 35.3283 48.5769 34.9397 48.9655L32.9189 50.9881C31.05 52.8569 30 55.3917 30 58.0346C30 60.6776 31.05 63.2123 32.9189 65.0812C34.7879 66.9501 37.3228 68 39.9659 68C42.609 68 45.1438 66.9501 47.0128 65.0812L53.9196 58.1747C54.8451 57.2494 55.5792 56.1508 56.0801 54.9418C56.5809 53.7327 56.8387 52.4369 56.8387 51.1282C56.8387 49.8195 56.5809 48.5236 56.0801 47.3146C55.5792 46.1055 54.8451 45.007 53.9196 44.0816C53.7272 43.8892 53.4988 43.7366 53.2474 43.6324C52.996 43.5283 52.7265 43.4747 52.4544 43.4747C52.1823 43.4747 51.9128 43.5283 51.6614 43.6324C51.41 43.7366 51.1816 43.8892 50.9892 44.0816H50.9852Z" fill="#015FC9"/>
</svg>
