<svg width="98" height="98" viewBox="0 0 98 98" fill="none" xmlns="http://www.w3.org/2000/svg">
<circle cx="49" cy="49" r="49" fill="#015FC9"/>
<path d="M48.5 31C41.0446 31 35 37.2125 35 44.875C35 47.8922 35.9624 50.6609 37.5622 52.9283C37.5909 52.9826 37.5954 53.0433 37.628 53.0954L46.628 66.9704C47.0454 67.6138 47.7485 68 48.5 68C49.2515 68 49.9546 67.6138 50.372 66.9704L59.372 53.0954C59.4052 53.0433 59.4091 52.9826 59.4378 52.9283C61.0376 50.6609 62 47.8922 62 44.875C62 37.2125 55.9554 31 48.5 31ZM48.5 49.5C46.0149 49.5 44 47.4292 44 44.875C44 42.3208 46.0149 40.25 48.5 40.25C50.9851 40.25 53 42.3208 53 44.875C53 47.4292 50.9851 49.5 48.5 49.5Z" fill="white"/>
</svg>
