<svg width="75" height="75" viewBox="0 0 75 75" fill="none" xmlns="http://www.w3.org/2000/svg">
<path d="M65.4384 29.1485C65.2919 28.2439 64.8253 27.4221 64.1236 26.8327C63.4219 26.2433 62.5319 25.9255 61.6156 25.9373H51.5614C48.575 34.514 43.762 42.34 37.4551 48.8745C31.1481 42.34 26.3351 34.514 23.3487 25.9373H13.2563C12.34 25.9255 11.45 26.2433 10.7483 26.8327C10.0466 27.4221 9.58003 28.2439 9.43348 29.1485L3.0493 67.3772C2.95998 67.9279 2.99231 68.4916 3.144 69.0285C3.29569 69.5654 3.56308 70.0627 3.92739 70.4853C4.2917 70.9078 4.7441 71.2456 5.25282 71.4747C5.76154 71.7039 6.31426 71.8189 6.87217 71.8117H68.038C68.5959 71.8189 69.1486 71.7039 69.6573 71.4747C70.1661 71.2456 70.6185 70.9078 70.9828 70.4853C71.3471 70.0627 71.6145 69.5654 71.7662 69.0285C71.9179 68.4916 71.9502 67.9279 71.8609 67.3772L65.4384 29.1485Z" fill="#2CA9BC"/>
<path d="M52.7465 25.9373H61.6538C62.5701 25.9255 63.4602 26.2433 64.1618 26.8327C64.8635 27.4221 65.3301 28.2439 65.4767 29.1485L71.8609 67.3772C71.9502 67.9279 71.9179 68.4916 71.7662 69.0285C71.6145 69.5654 71.3471 70.0627 70.9828 70.4853C70.6185 70.9078 70.1661 71.2456 69.6573 71.4747C69.1486 71.7039 68.5959 71.8189 68.038 71.8117H6.87217C6.31426 71.8189 5.76154 71.7039 5.25282 71.4747C4.7441 71.2456 4.2917 70.9078 3.92739 70.4853C3.56308 70.0627 3.29569 69.5654 3.144 69.0285C2.99231 68.4916 2.95998 67.9279 3.0493 67.3772L9.43348 29.1485C9.58003 28.2439 10.0466 27.4221 10.7483 26.8327C11.45 26.2433 12.34 25.9255 13.2563 25.9373H22.1636" stroke="black" stroke-width="5" stroke-linecap="round" stroke-linejoin="round"/>
<path d="M52.747 18.2915C52.747 14.2359 51.1359 10.3465 48.2682 7.47876C45.4005 4.61106 41.5111 3 37.4555 3C33.4 3 29.5105 4.61106 26.6428 7.47876C23.7751 10.3465 22.1641 14.2359 22.1641 18.2915C22.1641 33.5829 37.4555 48.8744 37.4555 48.8744C37.4555 48.8744 52.747 33.5829 52.747 18.2915Z" fill="#D9D9D9" stroke="black" stroke-width="5" stroke-linecap="round" stroke-linejoin="round"/>
</svg>
