<svg width="98" height="98" viewBox="0 0 98 98" fill="none" xmlns="http://www.w3.org/2000/svg">
<circle cx="49" cy="49" r="49" fill="#015FC9"/>
<path d="M56.1124 53.8125L55.2014 54.7181C55.2014 54.7181 53.0362 56.8711 47.1262 50.9944C41.2162 45.118 43.3814 42.9652 43.3814 42.9652L43.955 42.3948C45.3682 40.9897 45.5014 38.7338 44.2684 37.087L41.7465 33.7182C40.2205 31.6798 37.2719 31.4106 35.5229 33.1497L32.3837 36.271C31.5165 37.1334 30.9353 38.2512 31.0058 39.4912C31.1861 42.6637 32.6214 49.4894 40.6307 57.4533C49.1242 65.8985 57.0936 66.2341 60.3526 65.9303C61.3834 65.8343 62.2798 65.3093 63.0022 64.5909L65.8434 61.7661C67.7612 59.8591 67.2204 56.5899 64.7666 55.2561L60.9456 53.1789C59.3344 52.3031 57.3716 52.5603 56.1124 53.8125Z" fill="white"/>
</svg>
