<svg width="98" height="98" viewBox="0 0 98 98" fill="none" xmlns="http://www.w3.org/2000/svg">
<circle cx="49" cy="49" r="49" fill="#015FC9"/>
<path d="M69.1327 39.5511C68.8994 38.6666 68.4314 37.8589 67.7765 37.2105C67.1216 36.5621 66.3034 36.0962 65.4054 35.8605C59.9614 35.2292 54.4815 34.9447 49 35.0088C43.5186 34.9447 38.0387 35.2292 32.5946 35.8605C31.6967 36.0962 30.8785 36.5621 30.2236 37.2105C29.5687 37.8589 29.1007 38.6666 28.8673 39.5511C28.2709 42.8388 27.981 46.1733 28.0011 49.5129C27.98 52.8697 28.2699 56.2214 28.8673 59.5263C29.1128 60.3966 29.5862 61.1881 30.2403 61.8222C30.8943 62.4563 31.7061 62.9105 32.5946 63.1395C38.0387 63.7707 43.5186 64.0554 49 63.9911C54.4815 64.0554 59.9614 63.7707 65.4054 63.1395C66.2939 62.9105 67.1058 62.4563 67.7597 61.8222C68.4138 61.1881 68.8873 60.3966 69.1327 59.5263C69.7302 56.2214 70.0199 52.8697 69.9989 49.5129C70.0191 46.1733 69.7291 42.8388 69.1327 39.5511ZM44.6952 55.681V43.3964L55.6934 49.5129L44.6952 55.6552V55.681Z" fill="white"/>
</svg>
